<svg width="129" height="43" xmlns="http://www.w3.org/2000/svg">

 <g>
  <title>background</title>
  <rect fill="none" id="canvas_background" height="602" width="802" y="-1" x="-1"/>
 </g>
 <g>
  <title>Layer 1</title>
  <path id="svg_1" fill="black" d="m8.27448,42.0457c-0.33298,0 -0.65787,-0.0043 -0.98822,-0.0118c-0.68432,-0.0089 -1.36703,-0.0688 -2.04256,-0.1792c-0.62989,-0.1091 -1.24008,-0.3121 -1.81044,-0.6023c-0.56516,-0.2878 -1.08062,-0.6651 -1.52665,-1.1175c-0.45252,-0.4471 -0.82927,-0.9656 -1.11531,-1.5351c-0.28917,-0.5731 -0.48929,-1.1875 -0.59339,-1.8216c-0.11239,-0.6814 -0.17318,-1.3704 -0.18185,-2.0611c-0.00699,-0.2318 -0.01606,-1.0036 -0.01606,-1.0036l0,-25.39298c0,0 0.00962,-0.76001 0.01606,-0.98338c0.00833,-0.68954 0.06879,-1.37744 0.18086,-2.05775c0.10431,-0.63589 0.3046,-1.25201 0.59394,-1.82704c0.28495,-0.56907 0.65956,-1.08802 1.1093,-1.53672c0.44928,-0.45297 0.96641,-0.83223 1.53255,-1.12396c0.56907,-0.28921 1.17811,-0.49076 1.80673,-0.59788c0.67775,-0.11144 1.36285,-0.17166 2.04955,-0.18016l0.98604,-0.01363l112.30597,0l0.998,0.01396c0.68,0.00813 1.359,0.06788 2.031,0.17874c0.635,0.10849 1.25,0.31147 1.826,0.60226c1.134,0.58791 2.057,1.51804 2.639,2.66003c0.284,0.57109 0.482,1.18221 0.585,1.81263c0.113,0.68588 0.176,1.37918 0.189,2.07436c0.004,0.3113 0.004,0.64569 0.004,0.97854c0.009,0.41221 0.009,0.80452 0.009,1.20014l0,23.00534c0,0.3994 0,0.789 -0.009,1.1819c0,0.3575 0,0.6849 -0.005,1.022c-0.012,0.6828 -0.075,1.3637 -0.186,2.0374c-0.102,0.6387 -0.301,1.2579 -0.591,1.8357c-0.288,0.5633 -0.662,1.0773 -1.109,1.5232c-0.447,0.4548 -0.963,0.8344 -1.53,1.124c-0.574,0.2924 -1.188,0.4961 -1.822,0.6043c-0.676,0.111 -1.359,0.1709 -2.043,0.1793c-0.327,0.0077 -0.654,0.0116 -0.981,0.0118l-1.184,0.0022l-111.12752,-0.0021z"/>
  <path id="svg_2" fill="white" d="m26.1159,21.3534c0.0118,-0.9174 0.2541,-1.817 0.7043,-2.615c0.4503,-0.798 1.0939,-1.4684 1.8709,-1.949c-0.4936,-0.7091 -1.1449,-1.2928 -1.902,-1.7045c-0.7571,-0.4117 -1.5992,-0.6402 -2.4595,-0.6673c-1.8351,-0.1938 -3.6141,1.1045 -4.5493,1.1045c-0.9531,0 -2.3929,-1.0852 -3.9433,-1.0531c-1.0028,0.0325 -1.9802,0.3258 -2.8368,0.8513c-0.8566,0.5255 -1.5634,1.2652 -2.0513,2.1471c-2.11345,3.6808 -0.537,9.0901 1.4877,12.0653c1.0129,1.4569 2.1966,3.0842 3.7456,3.0265c1.5158,-0.0632 2.0818,-0.9722 3.9116,-0.9722c1.8128,0 2.3439,0.9722 3.9243,0.9355c1.6265,-0.0265 2.6512,-1.4633 3.6286,-2.9339c0.7278,-1.0381 1.2878,-2.1854 1.6593,-3.3994c-0.9449,-0.402 -1.7513,-1.075 -2.3186,-1.9349c-0.5673,-0.8599 -0.8704,-1.8688 -0.8715,-2.9009zm-2.9851,-8.8925c0.8869,-1.0709 1.3238,-2.4473 1.218,-3.837c-1.3549,0.14314 -2.6065,0.79449 -3.5053,1.8243c-0.4395,0.5031 -0.7761,1.0883 -0.9905,1.7223c-0.2145,0.6341 -0.3026,1.3044 -0.2593,1.9726c0.6776,0.0071 1.3481,-0.1407 1.9608,-0.4321c0.6127,-0.2914 1.1517,-0.7188 1.5763,-1.2501zm22.1457,16.4102l-5.1727,0l-1.2422,3.6895l-2.1911,0l4.8996,-13.6503l2.2763,0l4.8995,13.6503l-2.2283,0l-1.2411,-3.6895zm-4.637,-1.7026l4.1002,0l-2.0213,-5.9877l-0.0566,0l-2.0223,5.9877zm18.6876,0.4166c0,3.0926 -1.6457,5.0796 -4.129,5.0796c-0.6291,0.0331 -1.2547,-0.1127 -1.8053,-0.4206c-0.5505,-0.308 -1.0037,-0.7656 -1.3077,-1.3206l-0.047,0l0,4.9294l-2.0309,0l0,-13.2445l1.9659,0l0,1.6554l0.0373,0c0.318,-0.5524 0.7788,-1.0076 1.3336,-1.3175c0.5547,-0.3098 1.1826,-0.4625 1.8168,-0.442c2.511,0 4.1663,1.9968 4.1663,5.0808zm-2.0875,0c0,-2.0149 -1.0351,-3.3396 -2.6145,-3.3396c-1.5518,0 -2.5954,1.3525 -2.5954,3.3395c0,2.0053 1.0436,3.3483 2.5954,3.3483c1.5794,0 2.6145,-1.315 2.6145,-3.3482zm12.977,0c0,3.0926 -1.6455,5.0796 -4.1289,5.0796c-0.6291,0.033 -1.2547,-0.1127 -1.8052,-0.4207c-0.5506,-0.3079 -1.0038,-0.7655 -1.3078,-1.3205l-0.047,0l0,4.9294l-2.0308,0l0,-13.2445l1.9657,0l0,1.6554l0.0374,0c0.3179,-0.5524 0.7788,-1.0076 1.3335,-1.3175c0.5548,-0.3098 1.1826,-0.4625 1.8168,-0.442c2.5112,0 4.1663,1.9968 4.1663,5.0808zm-2.0873,0c0,-2.0149 -1.0352,-3.3396 -2.6147,-3.3396c-1.5518,0 -2.5954,1.3525 -2.5954,3.3395c0,2.0053 1.0436,3.3483 2.5954,3.3483c1.5795,0 2.6147,-1.315 2.6147,-3.3482zm9.2845,1.1722c0.1505,1.3536 1.4578,2.2425 3.2442,2.2425c1.7118,0 2.9434,-0.8889 2.9434,-2.1095c0,-1.0595 -0.7428,-1.6939 -2.5014,-2.1286l-1.7589,-0.4262c-2.4918,-0.6055 -3.6487,-1.7777 -3.6487,-3.6799c0,-2.3552 2.0405,-3.9728 4.9379,-3.9728c2.8675,0 4.8333,1.6176 4.8994,3.9728l-2.0501,0c-0.1227,-1.3622 -1.2421,-2.1845 -2.8782,-2.1845c-1.6359,0 -2.7554,0.832 -2.7554,2.0428c0,0.9651 0.7151,1.533 2.4641,1.9676l1.4952,0.3694c2.7842,0.6623 3.9411,1.7873 3.9411,3.7839c0,2.5538 -2.0223,4.1533 -5.2389,4.1533c-3.0095,0 -5.0414,-1.562 -5.1726,-4.0309l2.0789,0.0001zm12.7155,-8.504l0,2.3551l1.8815,0l0,1.6178l-1.8815,0l0,5.4865c0,0.8523 0.3767,1.2495 1.2039,1.2495c0.2233,-0.004 0.4463,-0.0197 0.668,-0.0473l0,1.6082c-0.3718,0.0698 -0.7498,0.1014 -1.128,0.0943c-2.0031,0 -2.7843,-0.7567 -2.7843,-2.6869l0,-5.7043l-1.4386,0l0,-1.6178l1.4386,0l0,-2.3551l2.0404,0zm2.9712,7.3318c0,-3.1314 1.8334,-5.099 4.6925,-5.099c2.869,0 4.693,1.9676 4.693,5.099c0,3.1398 -1.815,5.0989 -4.6932,5.0989c-2.8771,0 -4.6923,-1.9591 -4.6923,-5.0989zm7.3165,0c0,-2.148 -0.9785,-3.4159 -2.6242,-3.4159c-1.6455,0 -2.6231,1.2775 -2.6231,3.4159c0,2.1566 0.9776,3.4147 2.6231,3.4147c1.6457,0 2.6242,-1.2581 2.6242,-3.4147zm3.744,-4.9767l1.937,0l0,1.694l0.047,0c0.131,-0.5291 0.439,-0.9966 0.872,-1.3241c0.434,-0.3274 0.966,-0.4948 1.508,-0.474c0.234,-0.0008 0.467,0.0248 0.695,0.0762l0,1.9108c-0.295,-0.0908 -0.603,-0.1325 -0.912,-0.1234c-0.295,-0.0121 -0.589,0.0402 -0.862,0.1533c-0.273,0.1131 -0.519,0.2843 -0.72,0.5019c-0.201,0.2175 -0.353,0.4762 -0.445,0.7583c-0.092,0.2822 -0.123,0.5811 -0.089,0.8762l0,5.903l-2.031,0l0,-9.9522zm14.423,7.0291c-0.273,1.8067 -2.022,3.0465 -4.26,3.0465c-2.879,0 -4.665,-1.9397 -4.665,-5.0517c0,-3.1216 1.796,-5.1462 4.579,-5.1462c2.738,0 4.459,1.8914 4.459,4.9089l0,0.6999l-6.988,0l0,0.1235c-0.032,0.3662 0.013,0.7352 0.134,1.0824c0.12,0.3472 0.313,0.6646 0.564,0.9312c0.252,0.2667 0.557,0.4764 0.896,0.6152c0.338,0.1389 0.702,0.2037 1.068,0.1901c0.479,0.0453 0.961,-0.0665 1.373,-0.3187c0.411,-0.2522 0.731,-0.6314 0.911,-1.0811l1.929,0zm-6.865,-2.9703l4.946,0c0.018,-0.3293 -0.031,-0.6589 -0.146,-0.968c-0.114,-0.3091 -0.291,-0.5911 -0.519,-0.8283c-0.228,-0.2372 -0.502,-0.4244 -0.805,-0.55c-0.303,-0.1255 -0.629,-0.1867 -0.957,-0.1796c-0.331,-0.002 -0.658,0.062 -0.964,0.1881c-0.306,0.1261 -0.585,0.312 -0.819,0.5468c-0.234,0.2349 -0.42,0.514 -0.546,0.8214c-0.127,0.3074 -0.191,0.637 -0.19,0.9696z"/>
  <text stroke="null" transform="matrix(0.49942129646221567,0,0,0.49942129646221567,19.595015969001327,-4.3665983120062295) " xml:space="preserve" text-anchor="start" font-family="Helvetica, Arial, sans-serif" font-size="24" id="svg_4" y="39.77151" x="32.90094" stroke-opacity="null" stroke-width="0" fill="#ffffff">Скачать в</text>
 </g>
</svg>