<svg width="145" height="44" xmlns="http://www.w3.org/2000/svg">
 <defs>
  <linearGradient y2="0.436795" x2="-0.28741" y1="0.044329" x1="0.61256" id="paint0_linear_310_549">
   <stop stop-color="#00A0FF"/>
   <stop stop-color="#00A1FF" offset="0.00657"/>
   <stop stop-color="#00BEFF" offset="0.2601"/>
   <stop stop-color="#00D2FF" offset="0.5122"/>
   <stop stop-color="#00DFFF" offset="0.7604"/>
   <stop stop-color="#00E3FF" offset="1"/>
  </linearGradient>
  <linearGradient y2="0.491314" x2="-1.304644" y1="0.491314" x1="1.0759" id="paint1_linear_310_549">
   <stop stop-color="#FFE000"/>
   <stop stop-color="#FFBD00" offset="0.4087"/>
   <stop stop-color="#FFA500" offset="0.7754"/>
   <stop stop-color="#FF9C00" offset="1"/>
  </linearGradient>
  <linearGradient y2="1.82984" x2="-0.145107" y1="0.30893" x1="0.86725" id="paint2_linear_310_549">
   <stop stop-color="#FF3A44"/>
   <stop stop-color="#C31162" offset="1"/>
  </linearGradient>
  <linearGradient y2="0.499555" x2="0.3041" y1="-0.118937" x1="-0.193293" id="paint3_linear_310_549">
   <stop stop-color="#32A071"/>
   <stop stop-color="#2DA771" offset="0.0685"/>
   <stop stop-color="#15CF74" offset="0.4762"/>
   <stop stop-color="#06E775" offset="0.8009"/>
   <stop stop-color="#00F076" offset="1"/>
  </linearGradient>
  <linearGradient y2="2.0425" x2="0.034807" y1="0.304971" x1="0.862464" id="paint4_linear_310_549">
   <stop stop-color="#CC2E36"/>
   <stop stop-color="#9C0E4E" offset="1"/>
  </linearGradient>
  <linearGradient y2="-0.0002" x2="-2.88226" y1="-0.0002" x1="1.12786" id="paint5_linear_310_549">
   <stop stop-color="#E0C500"/>
   <stop stop-color="#E0A600" offset="0.4087"/>
   <stop stop-color="#E09100" offset="0.7754"/>
   <stop stop-color="#E08900" offset="1"/>
  </linearGradient>
  <linearGradient y2="1.000225" x2="-2.88198" y1="1.000225" x1="1.12786" id="paint6_linear_310_549">
   <stop stop-color="#FFE840"/>
   <stop stop-color="#FFCE40" offset="0.4087"/>
   <stop stop-color="#FFBC40" offset="0.7754"/>
   <stop stop-color="#FFB540" offset="1"/>
  </linearGradient>
  <linearGradient y2="0.919543" x2="0.181493" y1="0.143657" x1="-0.188071" id="paint7_linear_310_549">
   <stop stop-color="#65B895"/>
   <stop stop-color="#62BD95" offset="0.0685"/>
   <stop stop-color="#50DB97" offset="0.4762"/>
   <stop stop-color="#44ED98" offset="0.8009"/>
   <stop stop-color="#40F498" offset="1"/>
  </linearGradient>
 </defs>
 <g>
  <title>background</title>
  <rect fill="none" id="canvas_background" height="402" width="582" y="-1" x="-1"/>
 </g>
 <g>
  <title>Layer 1</title>
  <path id="svg_1" fill="black" d="m138.829,43.0374l-133.48942,0c-2.93673,0 -5.33958,-2.4209 -5.33958,-5.3797l0,-32.278c0,-2.95885 2.4028,-5.3797 5.33958,-5.3797l133.48942,0c2.937,0 5.34,2.42085 5.34,5.3797l0,32.278c0,2.9588 -2.403,5.3797 -5.34,5.3797"/>
  <path id="svg_9" fill="white" d="m80.817,13.9871zm33.384,18.2908l1.992,0l0,-13.4504l-1.992,0l0,13.4504zm17.948,-8.6053l-2.284,5.8315l-0.069,0l-2.37,-5.8315l-2.147,0l3.555,8.1505l-2.027,4.5337l2.08,0l5.478,-12.6842l-2.216,0zm-11.301,7.0776c-0.653,0 -1.563,-0.3287 -1.563,-1.1423c0,-1.0382 1.134,-1.4362 2.112,-1.4362c0.877,0 1.288,0.1904 1.821,0.4502c-0.155,1.2457 -1.219,2.1283 -2.37,2.1283l0,0zm0.241,-7.3718c-1.443,0 -2.937,0.6404 -3.555,2.0594l1.768,0.7439c0.378,-0.7439 1.082,-0.9865 1.821,-0.9865c1.03,0 2.078,0.6233 2.095,1.7308l0,0.1383c-0.361,-0.2077 -1.133,-0.5191 -2.078,-0.5191c-1.906,0 -3.848,1.0553 -3.848,3.0282c0,1.7997 1.564,2.9592 3.315,2.9592c1.34,0 2.078,-0.6056 2.543,-1.315l0.068,0l0,1.0381l1.923,0l0,-5.157c0,-2.3876 -1.768,-3.7203 -4.052,-3.7203l0,0zm-12.316,1.9315l-2.834,0l0,-4.6104l2.834,0c1.49,0 2.336,1.2427 2.336,2.3052c0,1.0423 -0.846,2.3052 -2.336,2.3052zm-0.051,-6.4824l-4.774,0l0,13.4504l1.991,0l0,-5.0959l2.783,0c2.209,0 4.38,-1.611 4.38,-4.1773c0,-2.5662 -2.171,-4.1772 -4.38,-4.1772l0,0zm-26.0366,11.9252c-1.3767,0 -2.5293,-1.1612 -2.5293,-2.7562c0,-1.6118 1.1526,-2.7907 2.5293,-2.7907c1.3591,0 2.4257,1.1789 2.4257,2.7907c0,1.595 -1.0666,2.7562 -2.4257,2.7562l0,0zm2.2881,-6.3269l-0.0689,0c-0.4471,-0.5373 -1.3078,-1.0226 -2.3915,-1.0226c-2.271,0 -4.3526,2.0106 -4.3526,4.5933c0,2.5654 2.0816,4.5588 4.3526,4.5588c1.0837,0 1.9444,-0.4855 2.3915,-1.0398l0.0689,0l0,0.6586c0,1.751 -0.929,2.6869 -2.4258,2.6869c-1.2215,0 -1.9785,-0.8843 -2.2885,-1.6295l-1.7374,0.728c0.4989,1.2133 1.8238,2.7042 4.0259,2.7042c2.3398,0 4.3184,-1.387 4.3184,-4.767l0,-8.2161l-1.8926,0l0,0.7452zm3.2688,7.8521l1.9957,0l0,-13.4509l-1.9957,0l0,13.4509zm4.9378,-4.4373c-0.0517,-1.7682 1.3591,-2.6693 2.3741,-2.6693c0.7919,0 1.4626,0.3984 1.6858,0.9709l-4.0599,1.6984zm6.1936,-1.5253c-0.3781,-1.023 -1.5314,-2.9121 -3.8884,-2.9121c-2.3398,0 -4.2837,1.8547 -4.2837,4.576c0,2.5655 1.9268,4.5761 4.5073,4.5761c2.0821,0 3.2867,-1.2827 3.7855,-2.0279l-1.5485,-1.0403c-0.5158,0.7629 -1.2217,1.2656 -2.237,1.2656c-1.0149,0 -1.7374,-0.4682 -2.2022,-1.3866l6.0731,-2.5309l-0.2061,-0.5199zm-48.3853,-1.508l0,1.9413l4.6107,0c-0.1376,1.092 -0.499,1.8892 -1.0496,2.444c-0.6707,0.6762 -1.7202,1.4214 -3.5612,1.4214c-2.8388,0 -5.058,-2.3053 -5.058,-5.1654c0,-2.86 2.2192,-5.1656 5.0581,-5.1656c1.5313,0 2.6492,0.6068 3.4752,1.3868l1.3591,-1.3692c-1.1526,-1.1096 -2.684,-1.9589 -4.8343,-1.9589c-3.8884,0 -7.1572,3.1895 -7.1572,7.1069c0,3.9175 3.2688,7.1067 7.1572,7.1067c2.0991,0 3.6817,-0.693 4.9203,-1.9934c1.2732,-1.2827 1.669,-3.0853 1.669,-4.5412c0,-0.451 -0.0342,-0.8667 -0.1035,-1.2134l-6.4858,0zm11.8313,5.9454c-1.3767,0 -2.5639,-1.1441 -2.5639,-2.7735c0,-1.6467 1.1872,-2.7734 2.5639,-2.7734c1.3761,0 2.5633,1.1267 2.5633,2.7734c0,1.6295 -1.1872,2.7735 -2.5633,2.7735zm0,-7.3495c-2.5122,0 -4.5596,1.924 -4.5596,4.576c0,2.6348 2.0474,4.5761 4.5596,4.5761c2.5116,0 4.559,-1.9413 4.559,-4.5761c0,-2.652 -2.0474,-4.576 -4.559,-4.576zm9.9457,7.3495c-1.3761,0 -2.5634,-1.1441 -2.5634,-2.7735c0,-1.6467 1.1873,-2.7734 2.5634,-2.7734c1.3762,0 2.5634,1.1267 2.5634,2.7734c0,1.6295 -1.1872,2.7735 -2.5634,2.7735l0,0zm0,-7.3495c-2.512,0 -4.559,1.924 -4.559,4.576c0,2.6348 2.047,4.5761 4.559,4.5761c2.5117,0 4.5592,-1.9413 4.5592,-4.5761c0,-2.652 -2.0475,-4.576 -4.5592,-4.576l0,0z"/>
  <path id="svg_10" fill="#00C1FF" d="m13.441,11.2681c-0.2762,0.25 -0.441,0.6671 -0.441,1.2207l0,-0.1251l0,18.2688l0,-0.1203c0,0.5113 0.1414,0.9061 0.3808,1.1604l0.0611,0.0587l0,0.0003c0.1938,0.1755 0.4423,0.2687 0.7272,0.2684c0.2782,0 0.5914,-0.089 0.9218,-0.2771l11.944,-6.8111l4.1026,-2.3398c0.5211,-0.2971 0.8136,-0.6803 0.8625,-1.0707l0,-0.0016c-0.0489,-0.3913 -0.3414,-0.7742 -0.8624,-1.0714l-4.1031,-2.3395l-11.9436,-6.8111c-0.3311,-0.1883 -0.6444,-0.2777 -0.9235,-0.2777c-0.2845,0 -0.5326,0.0929 -0.7264,0.2681l0,0z"/>
  <path id="svg_11" fill="url(#paint0_linear_310_549)" d="m13.4155,32l-0.0575,-0.0603c-0.2251,-0.2609 -0.358,-0.6661 -0.358,-1.1908l0,0.1235l0,-18.7434l0,0.1238c0,-0.5682 0.155,-0.9962 0.4146,-1.2528l9.5854,10.5003l-9.5845,10.4997z"/>
  <path id="svg_12" fill="url(#paint1_linear_310_549)" d="m26.6573,25l-3.6573,-3.5003l3.657,-3.4997l4.415,2.4002c0.5606,0.3048 0.8754,0.6977 0.928,1.0992l0,0.0016c-0.0526,0.4005 -0.3674,0.7937 -0.928,1.0985l-4.4147,2.4005"/>
  <path id="svg_13" fill="url(#paint2_linear_310_549)" d="m13.7488,32c-0.2933,0.0002 -0.5492,-0.0885 -0.7488,-0.2557l0,-0.0002l10.4994,-9.7441l3.5006,3.2493l-12.3017,6.4868c-0.3404,0.1791 -0.6629,0.2639 -0.9495,0.2639z"/>
  <path id="svg_14" fill="url(#paint3_linear_310_549)" d="m23.4999,22l-10.4999,-10.7191c0.1996,-0.1836 0.4552,-0.2809 0.7481,-0.2809c0.2874,0 0.6101,0.0936 0.9511,0.291l12.3008,7.1354l-3.5001,3.5736"/>
  <path id="svg_15" fill="url(#paint4_linear_310_549)" d="m13.804,32c-0.2904,0 -0.5441,-0.0905 -0.7417,-0.2609l-0.0004,0.0003c-0.0008,-0.0008 -0.0016,-0.0015 -0.0026,-0.0022l-0.054,-0.0505c-0.0017,-0.0015 -0.0033,-0.0034 -0.0053,-0.0052l0.0623,-0.0596c0.1976,0.1704 0.451,0.2609 0.7414,0.2606c0.2837,0 0.603,-0.0864 0.9399,-0.269l12.1784,-6.6135l0.078,0.0746l-0.079,0.0429l-12.1774,6.6131c-0.3071,0.1664 -0.5992,0.2531 -0.863,0.2676c-0.0255,0.0012 -0.0511,0.0018 -0.0766,0.0018"/>
  <path id="svg_16" fill="url(#paint5_linear_310_549)" d="m27.0771,25l-0.0771,-0.0661l4.1315,-2.0128c0.5247,-0.2555 0.8193,-0.5853 0.8685,-0.9211c0,0.1232 -0.0321,0.2465 -0.0958,0.3664c-0.1285,0.2417 -0.3861,0.4701 -0.7727,0.6585l-4.0544,1.9751"/>
  <path id="svg_17" fill="url(#paint6_linear_310_549)" d="m32,22c-0.0492,-0.4488 -0.3438,-0.888 -0.8684,-1.2288l-4.1316,-2.6831l0.0771,-0.0881l0.0003,0l4.0542,2.6332c0.5784,0.376 0.8681,0.8713 0.8684,1.3668"/>
  <path id="svg_18" fill="url(#paint7_linear_310_549)" d="m26.9216,18l-12.178,-6.6132c-0.3376,-0.1829 -0.6571,-0.2696 -0.9416,-0.2696c-0.2901,0 -0.5431,0.0902 -0.7407,0.2603l-0.0613,-0.0589c0.0192,-0.0194 0.0391,-0.0381 0.0597,-0.0561c0.0006,-0.0006 0.0016,-0.0013 0.0023,-0.0019c0.196,-0.1688 0.4464,-0.259 0.7338,-0.2606l0.0062,0c0.2845,0 0.604,0.0868 0.9416,0.2697l12.2564,6.6555l-0.0003,0.0002l-0.0781,0.0746"/>
  <text stroke="null" transform="matrix(0.4601994454860687,0,0,0.4601994454860687,19.33805875599603,-1.5570554861005519) " xml:space="preserve" text-anchor="start" font-family="Helvetica, Arial, sans-serif" font-size="24" id="svg_19" y="34.128273" x="52.539485" stroke-opacity="null" stroke-width="0" fill="#ffffff">Скачать в</text>
 </g>
</svg>